/* XPM */
static char * cute_xpm[] = {
"36 64 813 2",
"  	c #FDF8FA",
". 	c #FDF7F9",
"+ 	c #FAEEF2",
"@ 	c #FEF6F9",
"# 	c #FAECF1",
"$ 	c #FCF6F8",
"% 	c #F8EFF2",
"& 	c #FAF0F3",
"* 	c #FBF1F5",
"= 	c #FADEE7",
"- 	c #FBE2EA",
"; 	c #FBE7ED",
"> 	c #FBD0DF",
", 	c #F9ECF1",
"' 	c #F9EAF1",
") 	c #FFFCFD",
"! 	c #FEF8FA",
"~ 	c #FAEBF2",
"{ 	c #FAE7ED",
"] 	c #FCF4F7",
"^ 	c #FAF2F5",
"/ 	c #FEF7F9",
"( 	c #FBE2EB",
"_ 	c #FACEDD",
": 	c #FBD4E1",
"< 	c #FADDE7",
"[ 	c #FCF5F7",
"} 	c #FFF7F9",
"| 	c #FBEBF1",
"1 	c #FDF8F9",
"2 	c #FAE7EF",
"3 	c #FEF7FA",
"4 	c #FDF6F8",
"5 	c #FCF4F6",
"6 	c #FCEFF4",
"7 	c #FCF2F7",
"8 	c #FDF2F5",
"9 	c #F9DEE7",
"0 	c #FBE8EE",
"a 	c #FDF4F8",
"b 	c #FEF5F8",
"c 	c #FBECF1",
"d 	c #FDF2F6",
"e 	c #FDF7FA",
"f 	c #FAE9EF",
"g 	c #FCF5F8",
"h 	c #FDF6F9",
"i 	c #FADEE8",
"j 	c #F9E1EA",
"k 	c #FAEAF0",
"l 	c #FFF6F9",
"m 	c #FBEEF3",
"n 	c #FEFBFC",
"o 	c #FBF5F7",
"p 	c #FCF2F6",
"q 	c #FBF4F7",
"r 	c #F8EEF1",
"s 	c #F9D8E3",
"t 	c #FBF1F4",
"u 	c #FDF5F8",
"v 	c #FEF6F8",
"w 	c #FAF0F4",
"x 	c #F6EBF0",
"y 	c #FDF4F7",
"z 	c #FCF2F5",
"A 	c #F9EFF3",
"B 	c #F9EEF1",
"C 	c #FAF3F5",
"D 	c #FEFCFD",
"E 	c #FAF3F6",
"F 	c #F9F0F4",
"G 	c #FBD6E2",
"H 	c #FCEEF2",
"I 	c #FCF0F4",
"J 	c #FBD5E2",
"K 	c #FFF7FA",
"L 	c #F9F1F6",
"M 	c #FBF4F6",
"N 	c #F9DAE5",
"O 	c #FACDDC",
"P 	c #F9D3E0",
"Q 	c #F9D0DE",
"R 	c #FBF3F6",
"S 	c #F7EAF0",
"T 	c #FDF5F7",
"U 	c #F9F1F4",
"V 	c #FCF3F6",
"W 	c #FBDBE6",
"X 	c #FCF1F5",
"Y 	c #FCD4E1",
"Z 	c #FCE8EF",
"` 	c #FAF1F4",
" .	c #FDFAFB",
"..	c #FBEEF2",
"+.	c #FBE6ED",
"@.	c #FBF2F5",
"#.	c #FCF7F9",
"$.	c #FDF3F6",
"%.	c #FAE8EE",
"&.	c #FDF1F5",
"*.	c #F8E9EE",
"=.	c #FDEEF3",
"-.	c #F8ECF1",
";.	c #F9E7F0",
">.	c #F6E1EB",
",.	c #FCF4F8",
"'.	c #F9E7EE",
").	c #F8D0DD",
"!.	c #F9DAE4",
"~.	c #F7DFE7",
"{.	c #FAEDF1",
"].	c #F9EEF2",
"^.	c #F9E9EF",
"/.	c #F8E2EB",
"(.	c #FCECF1",
"_.	c #FAF0F5",
":.	c #F8E6EE",
"<.	c #FAE7EE",
"[.	c #FBEDF2",
"}.	c #F7E5ED",
"|.	c #F8EAF0",
"1.	c #FAF1F5",
"2.	c #F9E7ED",
"3.	c #FBECF2",
"4.	c #F8EBF0",
"5.	c #FAEBF0",
"6.	c #FBEAF0",
"7.	c #F8EFF4",
"8.	c #FBF2F6",
"9.	c #FAE5EC",
"0.	c #FCEDF2",
"a.	c #FDF3F7",
"b.	c #FAD5E2",
"c.	c #FADBE6",
"d.	c #FBC9DB",
"e.	c #FBEDF3",
"f.	c #F6E5ED",
"g.	c #FBF0F4",
"h.	c #FAD4E1",
"i.	c #FCCEDE",
"j.	c #FBE0E9",
"k.	c #FCC9DB",
"l.	c #FBE6EE",
"m.	c #FCEAF0",
"n.	c #FCCFDE",
"o.	c #FBCEDD",
"p.	c #FBE7EE",
"q.	c #FBEFF3",
"r.	c #F9DCE6",
"s.	c #FCEBF1",
"t.	c #F5E9EF",
"u.	c #F9EFF4",
"v.	c #FBF3F7",
"w.	c #F9E8EF",
"x.	c #FAF1F6",
"y.	c #F8D2DF",
"z.	c #F7D5E2",
"A.	c #F9E6EC",
"B.	c #FAEFF3",
"C.	c #F8D0DF",
"D.	c #F8D8E4",
"E.	c #F8E1EB",
"F.	c #FAEDF2",
"G.	c #F8ECF2",
"H.	c #F9F0F3",
"I.	c #F8EDF2",
"J.	c #F9E7EF",
"K.	c #F6E0E9",
"L.	c #FBF0F3",
"M.	c #FCECF2",
"N.	c #F9EAF0",
"O.	c #F9EDF1",
"P.	c #F7EEF2",
"Q.	c #FAE2EA",
"R.	c #FBD7E3",
"S.	c #F9EBF0",
"T.	c #FAECF2",
"U.	c #F9E5EC",
"V.	c #FBDFE8",
"W.	c #FBCCDC",
"X.	c #FACFDE",
"Y.	c #FBD9E4",
"Z.	c #FEF4F8",
"`.	c #F9E3EB",
" +	c #F8EDF1",
".+	c #F9D9E4",
"++	c #FEF4F7",
"@+	c #FBDEE8",
"#+	c #F5EBEF",
"$+	c #FADCE6",
"%+	c #FCF1F4",
"&+	c #FBDAE5",
"*+	c #F8EEF2",
"=+	c #FBF6F8",
"-+	c #F9CDDC",
";+	c #F9D2DF",
">+	c #FAD0DF",
",+	c #F6E7EE",
"'+	c #FCEEF3",
")+	c #FBCFDF",
"!+	c #FBEAF1",
"~+	c #FDFAFC",
"{+	c #FADFE9",
"]+	c #FAEEF3",
"^+	c #F9EDF2",
"/+	c #F8E3EA",
"(+	c #F9E0E9",
"_+	c #F9DEE9",
":+	c #F9EBF1",
"<+	c #F9E3ED",
"[+	c #F5E3EB",
"}+	c #F9E5ED",
"|+	c #F7E4EC",
"1+	c #F4E1EA",
"2+	c #FDF7F8",
"3+	c #FAF2F4",
"4+	c #F9E6ED",
"5+	c #F1E5E6",
"6+	c #D9BABF",
"7+	c #CA95A5",
"8+	c #E9DEE1",
"9+	c #FBF4F5",
"0+	c #E4D5D5",
"a+	c #EBD1D4",
"b+	c #EEDFDF",
"c+	c #F9F2F1",
"d+	c #FCF5F6",
"e+	c #FDF0F4",
"f+	c #E7DADB",
"g+	c #CBA7AE",
"h+	c #D6B0B5",
"i+	c #BF8B9A",
"j+	c #DCC3C9",
"k+	c #E5C6C8",
"l+	c #D3A6A9",
"m+	c #D9BDB9",
"n+	c #DDAAB1",
"o+	c #E6D3D3",
"p+	c #F7EBF2",
"q+	c #F8F2F3",
"r+	c #E8C4C8",
"s+	c #E2ADB5",
"t+	c #DCADB5",
"u+	c #EDDFE0",
"v+	c #FBE3EB",
"w+	c #F3CED6",
"x+	c #DBBABB",
"y+	c #E5C0C3",
"z+	c #DDB5BC",
"A+	c #DAC2C8",
"B+	c #F5EBEA",
"C+	c #D5A3A8",
"D+	c #E0D4C6",
"E+	c #E6DFCF",
"F+	c #D9C9BD",
"G+	c #DBA9AF",
"H+	c #F6EEF0",
"I+	c #E4C3C6",
"J+	c #D9B3B1",
"K+	c #DED0C4",
"L+	c #DBC0BA",
"M+	c #DFABB2",
"N+	c #F3DFE4",
"O+	c #FCCCDC",
"P+	c #FBE5EC",
"Q+	c #F3ECEC",
"R+	c #E0D0D2",
"S+	c #F6F0F1",
"T+	c #FAD2E0",
"U+	c #F9E2E9",
"V+	c #E3C7C5",
"W+	c #E9C4C5",
"X+	c #E8C5C5",
"Y+	c #E4C0C0",
"Z+	c #E4BAC0",
"`+	c #DEC9CD",
" @	c #E6D4D3",
".@	c #D9B9B7",
"+@	c #E6DFCD",
"@@	c #E6DECE",
"#@	c #E7DFCE",
"$@	c #D1ACAE",
"%@	c #E5CCCF",
"&@	c #F2E8E8",
"*@	c #E0A7B0",
"=@	c #DED1C5",
"-@	c #E7DECE",
";@	c #E7DFCF",
">@	c #E1B7BA",
",@	c #E8C6CE",
"'@	c #FACBDB",
")@	c #CDACB5",
"!@	c #C792A4",
"~@	c #B5929A",
"{@	c #EFE0E4",
"]@	c #EFE7E5",
"^@	c #E7C5C6",
"/@	c #ECC9C9",
"(@	c #E8C2C3",
"_@	c #E3BBC1",
":@	c #EAD9DA",
"<@	c #E0C4C3",
"[@	c #DDC7C0",
"}@	c #E6DDCE",
"|@	c #E7DECF",
"1@	c #D3C0B9",
"2@	c #DFB0B7",
"3@	c #EAD4D6",
"4@	c #D8A7AC",
"5@	c #E6DECF",
"6@	c #E0C6C0",
"7@	c #E7C2C6",
"8@	c #F1EAEA",
"9@	c #C394A3",
"0@	c #CA9DA8",
"a@	c #D1A0AE",
"b@	c #B99BA0",
"c@	c #E7D9D6",
"d@	c #EAC5C8",
"e@	c #EBC8C8",
"f@	c #E7C2C2",
"g@	c #E8C1C3",
"h@	c #E5BFC1",
"i@	c #EBE1E0",
"j@	c #DFC1C3",
"k@	c #DDC9C0",
"l@	c #E6DFCE",
"m@	c #DAD0C4",
"n@	c #DBA3AA",
"o@	c #F7EDEF",
"p@	c #F8EEF3",
"q@	c #E5B9BE",
"r@	c #D7B3B1",
"s@	c #E6DECD",
"t@	c #E1CDC4",
"u@	c #E3B5BB",
"v@	c #E9E0E1",
"w@	c #C296A0",
"x@	c #E2BABD",
"y@	c #E6C1C2",
"z@	c #E8C3C5",
"A@	c #E1D3D2",
"B@	c #E4CDCB",
"C@	c #EAC8C9",
"D@	c #ECCACA",
"E@	c #E7C2C4",
"F@	c #E7C0C3",
"G@	c #DFBCBD",
"H@	c #F8F1F3",
"I@	c #FAEAEF",
"J@	c #E1C3C6",
"K@	c #DECAC2",
"L@	c #E1D8CB",
"M@	c #C9949B",
"N@	c #E2D0D1",
"O@	c #EBE3E4",
"P@	c #EADFE3",
"Q@	c #EDE2E3",
"R@	c #DEA5AF",
"S@	c #DAC3BA",
"T@	c #E6DDCD",
"U@	c #E0D0C5",
"V@	c #E0AEB7",
"W@	c #E6DCDC",
"X@	c #E2BABE",
"Y@	c #E6C2C2",
"Z@	c #E6C3C3",
"`@	c #E9C5C5",
" #	c #DEC2C0",
".#	c #FBF9F8",
"+#	c #FAF4F6",
"@#	c #E1C6C5",
"##	c #EBCBCB",
"$#	c #EDCBCA",
"%#	c #E5BFC2",
"&#	c #D5ADB0",
"*#	c #F8DCE6",
"=#	c #FBE6EF",
"-#	c #E2C5C9",
";#	c #DCC7BF",
">#	c #E7E0CE",
",#	c #D7C5BF",
"'#	c #CBA1A6",
")#	c #BE9197",
"!#	c #D499A4",
"~#	c #E0A4AF",
"{#	c #E3A7B1",
"]#	c #DFA4AE",
"^#	c #D99FA9",
"/#	c #CC95A0",
"(#	c #D3BCB5",
"_#	c #E1D8C9",
":#	c #DED1C4",
"<#	c #DFADB4",
"[#	c #EADFDF",
"}#	c #E3BEC0",
"|#	c #E8C4C4",
"1#	c #EBC8C7",
"2#	c #EEEAE8",
"3#	c #F5E9EE",
"4#	c #E3C7C6",
"5#	c #EECCCB",
"6#	c #EDC9C9",
"7#	c #E7C3C5",
"8#	c #E6C0C3",
"9#	c #D6A3AB",
"0#	c #EDD7DE",
"a#	c #E5CFD0",
"b#	c #DBC7C0",
"c#	c #C5B9AF",
"d#	c #BFA3A4",
"e#	c #C2A4A6",
"f#	c #DDA9B3",
"g#	c #E7A9B6",
"h#	c #EBADB9",
"i#	c #EEB1BC",
"j#	c #EEB1BE",
"k#	c #EDAFBC",
"l#	c #EBADBA",
"m#	c #E5A9B5",
"n#	c #D6A4AC",
"o#	c #CAABAA",
"p#	c #E3D9CA",
"q#	c #DED1C3",
"r#	c #E1B2B8",
"s#	c #EAE1DF",
"t#	c #DEBBBC",
"u#	c #E9C5C6",
"v#	c #E6C1C1",
"w#	c #E8C3C3",
"x#	c #EAC6C6",
"y#	c #F1EAE8",
"z#	c #E6CECC",
"A#	c #EFCBCB",
"B#	c #ECC8C8",
"C#	c #E5BEC2",
"D#	c #D69EA9",
"E#	c #E3C8CD",
"F#	c #F3E8EA",
"G#	c #DDCACA",
"H#	c #C4A7A7",
"I#	c #E6C7C8",
"J#	c #EFD1D1",
"K#	c #E8C7C5",
"L#	c #E3B6BA",
"M#	c #E8ADB9",
"N#	c #EDB3BE",
"O#	c #F0B5C1",
"P#	c #F1B5C1",
"Q#	c #F1B4C0",
"R#	c #EBB1BD",
"S#	c #D3B3B5",
"T#	c #CAAFAF",
"U#	c #B6A6A0",
"V#	c #DECFC5",
"W#	c #E7C0C4",
"X#	c #EFE2E2",
"Y#	c #D4AFB1",
"Z#	c #E8C2C2",
"`#	c #EAC5C5",
" $	c #F5ECEB",
".$	c #FEF8F9",
"+$	c #E7D6D4",
"@$	c #EECBCA",
"#$	c #E5BDC1",
"$$	c #D099A3",
"%$	c #D29EA9",
"&$	c #F8EBEE",
"*$	c #A29692",
"=$	c #CCB3B1",
"-$	c #6B5A5E",
";$	c #726469",
">$	c #D0B5B4",
",$	c #DFB7B8",
"'$	c #ECAFBC",
")$	c #E8ACB7",
"!$	c #E0A5B0",
"~$	c #EBAFBB",
"{$	c #EDB0BB",
"]$	c #E2B1B7",
"^$	c #EAC8C7",
"/$	c #EECECB",
"($	c #E4C4C3",
"_$	c #C1ADA7",
":$	c #EBCDD0",
"<$	c #D8BDC0",
"[$	c #CBA5A8",
"}$	c #EAC7C7",
"|$	c #E7C0C1",
"1$	c #E8C1C2",
"2$	c #F4EAE9",
"3$	c #EDE2E2",
"4$	c #ECCCCA",
"5$	c #E3BBBD",
"6$	c #CA939C",
"7$	c #D4939F",
"8$	c #EAD3D9",
"9$	c #BBA9A7",
"0$	c #3F2F35",
"a$	c #4E3340",
"b$	c #DFDBE0",
"c$	c #8F8081",
"d$	c #E4BEC1",
"e$	c #E4ACB7",
"f$	c #C28C9C",
"g$	c #B47D90",
"h$	c #BE8496",
"i$	c #D89DAB",
"j$	c #F0B4BF",
"k$	c #E1B9BC",
"l$	c #CAADAE",
"m$	c #837675",
"n$	c #978282",
"o$	c #D1B5B5",
"p$	c #D5C2C2",
"q$	c #F0EAEA",
"r$	c #EDE3E3",
"s$	c #CF96A0",
"t$	c #CBA5A9",
"u$	c #E6BFC0",
"v$	c #E7C1C2",
"w$	c #F2EBEA",
"x$	c #E5C5C3",
"y$	c #EAC3C5",
"z$	c #DEB3BA",
"A$	c #CD99A0",
"B$	c #D9929F",
"C$	c #BC9D9C",
"D$	c #E3C4C5",
"E$	c #4B303C",
"F$	c #563445",
"G$	c #543646",
"H$	c #462C38",
"I$	c #D2B2B8",
"J$	c #C38FAA",
"K$	c #AF7D99",
"L$	c #AF7B96",
"M$	c #A97590",
"N$	c #AA728E",
"O$	c #E0AAB7",
"P$	c #CDB0AF",
"Q$	c #9E979C",
"R$	c #CEC8CC",
"S$	c #422835",
"T$	c #9C898A",
"U$	c #A29795",
"V$	c #CFA9AB",
"W$	c #D999A7",
"X$	c #D0A8AB",
"Y$	c #E5BFBF",
"Z$	c #F8F4F4",
"`$	c #F3DFE1",
" %	c #DFB3B9",
".%	c #E6BCC2",
"+%	c #E2B2B9",
"@%	c #D19CA4",
"#%	c #DA96A3",
"$%	c #BD8790",
"%%	c #DFBEBF",
"&%	c #6D585E",
"*%	c #523142",
"=%	c #563546",
"-%	c #4A2C3A",
";%	c #C2A2A6",
">%	c #BD8BA8",
",%	c #C99ABA",
"'%	c #C997B9",
")%	c #CA98B9",
"!%	c #C898B8",
"~%	c #CC9DAC",
"{%	c #A68D8F",
"]%	c #54414B",
"^%	c #523E48",
"/%	c #432736",
"(%	c #816D71",
"_%	c #D6B9BA",
":%	c #E7DBDB",
"<%	c #D89AA5",
"[%	c #D093A0",
"}%	c #DCB4B5",
"|%	c #E7C3C1",
"1%	c #E5BFBE",
"2%	c #DAB7B9",
"3%	c #E6C8C8",
"4%	c #D6A0A9",
"5%	c #DCA4AD",
"6%	c #D899A4",
"7%	c #DD9FAA",
"8%	c #CB8B98",
"9%	c #DBB3B5",
"0%	c #4E3740",
"a%	c #4E3040",
"b%	c #654E55",
"c%	c #D6AEB6",
"d%	c #BC8C9C",
"e%	c #BA8DA9",
"f%	c #CA96BA",
"g%	c #C392B2",
"h%	c #9C798E",
"i%	c #DBAAB4",
"j%	c #6B555B",
"k%	c #3D2431",
"l%	c #3C2330",
"m%	c #4A2D3B",
"n%	c #AB9295",
"o%	c #D6AFB4",
"p%	c #D8B6B8",
"q%	c #E3A4B0",
"r%	c #CD95A0",
"s%	c #E5BCBE",
"t%	c #E5C0C0",
"u%	c #E6BEBF",
"v%	c #DCB6B7",
"w%	c #F1E3E6",
"x%	c #E4CCCB",
"y%	c #D99DA7",
"z%	c #D597A3",
"A%	c #DBA1AB",
"B%	c #DE98A4",
"C%	c #E2A4AE",
"D%	c #E6B9BB",
"E%	c #DFB7BB",
"F%	c #C6A7A8",
"G%	c #DAB3B7",
"H%	c #EBAEBA",
"I%	c #ECAFBD",
"J%	c #CE9BAD",
"K%	c #C897B4",
"L%	c #BD8EA4",
"M%	c #DDA4B1",
"N%	c #E9AFBA",
"O%	c #816B71",
"P%	c #412935",
"Q%	c #472D39",
"R%	c #7A6568",
"S%	c #DFBEC0",
"T%	c #D4A5AC",
"U%	c #D59DA6",
"V%	c #E7AAB5",
"W%	c #CD9BA3",
"X%	c #E4BCBF",
"Y%	c #E0B8BC",
"Z%	c #DAB0B2",
"`%	c #E4CECE",
" &	c #EEE0E0",
".&	c #DDB3B8",
"+&	c #DEA1AC",
"@&	c #E8A2AF",
"#&	c #EA9BAB",
"$&	c #E097A4",
"%&	c #E5A0AB",
"&&	c #E8A3AF",
"*&	c #E2A0AD",
"=&	c #DA9FAA",
"-&	c #DAA0AA",
";&	c #D9A0A7",
">&	c #C6949B",
",&	c #D697A2",
"'&	c #E4A0AC",
")&	c #E9A5B3",
"!&	c #E0AAB4",
"~&	c #C39DA1",
"{&	c #CBA2A8",
"]&	c #E8BCBF",
"^&	c #DEAEB3",
"/&	c #C98F9B",
"(&	c #E7AAB6",
"_&	c #DEA4AE",
":&	c #E3A8B2",
"<&	c #DAACB3",
"[&	c #CFA1A7",
"}&	c #DDC0C3",
"|&	c #FCF8FA",
"1&	c #EEE3E4",
"2&	c #E1BFC1",
"3&	c #E89CA9",
"4&	c #DD97A1",
"5&	c #DDA1A9",
"6&	c #DDADB1",
"7&	c #E5BEBF",
"8&	c #EBC7C7",
"9&	c #E7C4C4",
"0&	c #E8C3C4",
"a&	c #DEB7B8",
"b&	c #D7A7AB",
"c&	c #D796A0",
"d&	c #E69BA8",
"e&	c #E89BA9",
"f&	c #E89FAA",
"g&	c #E89DAC",
"h&	c #DF9EAB",
"i&	c #E8AFBB",
"j&	c #D394A0",
"k&	c #D395A0",
"l&	c #D3A1A8",
"m&	c #ECDADB",
"n&	c #FAF5F7",
"o&	c #F9F3F5",
"p&	c #E4C1C3",
"q&	c #DE9FA8",
"r&	c #E9BBBD",
"s&	c #EDCFCD",
"t&	c #EFD1CF",
"u&	c #EFCFCD",
"v&	c #E0C0BF",
"w&	c #DFBDBE",
"x&	c #E3C2C3",
"y&	c #EDCDCC",
"z&	c #EBCBCA",
"A&	c #D9AEB0",
"B&	c #E0A4AC",
"C&	c #E198A7",
"D&	c #EBA2B0",
"E&	c #EBAEBB",
"F&	c #E8B1BB",
"G&	c #DDADB6",
"H&	c #E8CFD3",
"I&	c #F1E7E8",
"J&	c #D2ACAE",
"K&	c #D5B0B0",
"L&	c #E2BEBE",
"M&	c #E9C8C7",
"N&	c #EFCFCE",
"O&	c #F0D1D0",
"P&	c #F1D2D0",
"Q&	c #F0D1D1",
"R&	c #F0D2D1",
"S&	c #ECCDCC",
"T&	c #E4C3C2",
"U&	c #EBCBC9",
"V&	c #E3B3B7",
"W&	c #ECAFB9",
"X&	c #CEAAAC",
"Y&	c #D3B5B8",
"Z&	c #F0E5E6",
"`&	c #FCF8F9",
" *	c #F0E6E7",
".*	c #D7ABAE",
"+*	c #E7AEB6",
"@*	c #D89FAA",
"#*	c #D7A6AE",
"$*	c #DBBCBC",
"%*	c #F0D2D0",
"&*	c #E8C6C7",
"**	c #E4AFB7",
"=*	c #DAA4AD",
"-*	c #CEA2A8",
";*	c #DDB1B6",
">*	c #F1E6E7",
",*	c #E6D5D6",
"'*	c #E0C4C8",
")*	c #FCEFF3",
"!*	c #E4C2C7",
"~*	c #F2E4E7",
"{*	c #E7D4D3",
"]*	c #D49BA7",
"^*	c #E7ABB7",
"/*	c #EBAAB8",
"(*	c #D198A4",
"_*	c #D5A3AA",
":*	c #EECCCD",
"<*	c #D9A1AB",
"[*	c #DA9CA8",
"}*	c #F1B4C1",
"|*	c #D79AA7",
"1*	c #D399A3",
"2*	c #DDBEC0",
"3*	c #EBCFD4",
"4*	c #E2BEC2",
"5*	c #EED9DB",
"6*	c #E4C0C2",
"7*	c #E2C0C3",
"8*	c #EEE0E1",
"9*	c #E6B3B9",
"0*	c #D49FA9",
"a*	c #ECB1BD",
"b*	c #EBACB9",
"c*	c #D29CA8",
"d*	c #B48A90",
"e*	c #ECCBCC",
"f*	c #EFD0CE",
"g*	c #B3838C",
"h*	c #D59DA8",
"i*	c #F0B4C0",
"j*	c #D79CA8",
"k*	c #D59AA6",
"l*	c #E1CCCC",
"m*	c #D5A7AD",
"n*	c #F4E9EA",
"o*	c #E6AAB5",
"p*	c #EDDEDE",
"q*	c #E3A8B1",
"r*	c #E1BFC6",
"s*	c #F6DDE7",
"t*	c #DEBEC1",
"u*	c #ECB2BD",
"v*	c #EDB2BE",
"w*	c #EAADB9",
"x*	c #D9AAB2",
"y*	c #DAC4C4",
"z*	c #E6CBCB",
"A*	c #EECFCE",
"B*	c #D3BAB9",
"C*	c #DDB7BC",
"D*	c #EFB6C1",
"E*	c #E8ACB8",
"F*	c #ECD0D5",
"G*	c #D0B2B6",
"H*	c #D8C9CA",
"I*	c #E7C9CC",
"J*	c #E5B4BB",
"K*	c #F7DFE9",
"L*	c #F5E0E9",
"  . . . . . + @ # . . . $ % & * . . . = - ; > . . . . . . . . ,   ' . ) ",
"! . . . . . ~ . { . . . ] . ^ ] / / . ( _ : < [ . . / . . } / | 1 2 . ) ",
"3 4 . . 5 6 7 . . . . . . . . / @ 8 ] . 9 0 a . . . b . . / c d . . e ) ",
". f . . . . . . . # . . . . / g ^ h . . i j 5 . . . k . . / . / . l m n ",
"g @ . . . . @ o 1 . . [ p . . q r . . . s t 4 . . g $ . . . . 1 u / . ) ",
"! . . . . v w x [ / . 4 y / . 1 $ . . z - . . . . . . . . . . A B C . D ",
"  . . . . ! E F . . G H I J y . . . . K 3 . . 3 L . . . . . / C * $ . ] ",
"  . . @ / . . M . 4 N O P Q [ . . R R 5 . . / u S . . . [ . . . T @ / [ ",
"  . u U R V . . / K W ( X Y Z . h [ ` [ . h b ! $ . . . R U M . / @ /  .",
"  . 4 o & . . . ..@ +.. . . h / @.. [ [ . y X . . . . #.4 ^ g . . ...   ",
"u 3 ` . y u . . . . . . . / y . . . . . . . . . 4 $./ t . [ u . . . . ) ",
"X l @ . } / . . o . . . . . %.&.. R V / f *.d . u =./ . . l } . . ] . ) ",
". . . . . . -.;.>.,.. . . z ] . @ '.).!.~.{.. . . . . . . . . ].^./.w ) ",
"1 (.. . . } _.:., * . . . . . . . .   <.f / . . . . [.. . . . @.}.|.1.D ",
". . . . . / g w t 5 . . . . . / . . . 2.3.. . . . . #.. . . . [ 1.p ] D ",
". . . . . / b . V q . . . . h 4.. . * M 5.. {.. / / . . . . . u . u R ) ",
"4 . 6.h . . . . . . . @.7.8.#.A . . #   9.1 / / 0.a.1 (.V . . . . . . ) ",
"b.c.d.e.. . . . $ . l / f.7 g $ . . g.. . . .   h.i.j.k.l.l . . @ b 3 ) ",
"b.m.n.5.. . . a.c / . / w . . . . . . . . . . . z n.[.o.p./ . . g k l ) ",
"q.. m m . . . y 4 . . @ . . . . . . C / . . . / r.Z #.X s.. . . y h . ) ",
"  . . . . . . . . . . . . . . . . [ t.u.g . . / . . . . . . . . @ / . D ",
"! . . . . t @ 4 2.^.1 ... . . . . b A v.. . . . . . . . . . V u / w.*.n ",
"x.[ / . . 9 y.z.A.B.. h . . 4 . . . R 3 / . . ` ] 8.$ . . . 9.C.D.E.F.D ",
"G.[ / . . . X f [./ . . q H.I.8.. . / . . . . . w J.M l . . / h 2.k . ) ",
". . . . . . 0.F.B.. . . , /.K.w . p L.. . . . . ` . / l . . . p M.N.. ) ",
"  . . . . . {.g O.. . . . P.w w . @ . Q.0 [.R.. . . . . . . . ].h S.. ) ",
"  . . . . . T.. U.. . . M / 1.a . . . V.W.X.Y.y . . . . . /   [.1 U.. ) ",
"! h . . V 6 g.. #.. . . . / @ / @ V ] / < p.V / . . h . . K c I . . . ) ",
"/ ^.. . . . . / K e.. . . . . h a.Z.4 . i `.Z.. . . f . . . . / . / m n ",
"[ 4 . . . . / [ . . . b y . . 7  +. . . .+m u . . ++g . . . . 1 h . . ) ",
"  . . . . . @.H.. . . g z . . . [ . . X @+. . . . . . . . . . R p 4 . ) ",
"  . . . . u A #+M #.$+%+a.&+u . . . . . 4 . . . R . . . . . h F *+^ / =+",
"  . . . . . / R g 4 : -+;+>+5 . . @.E 4 . . . @ ,+. . . . . . . [ T / R ",
"  . u U R ] K 3     j.V.'+)+!+. u [ ^ z / . . K ] . . . ` ^ ] 3 . / / ~+",
"  . g ] B.u / / + / {+4 . g u . * / ] u . ] q./ } . . 4 @ ` p . . F.#.#.",
"3 . ` / ] [ . / / / . . . . [ 3 . . . } / . . . . . . * . [ [ . . . . ) ",
"q.. . . / / . . [ . . . . . +.X . . . . 3., ] . y m.. . . / / . . [ . ) ",
"  . . . . . ]+^+4.] . . . z ^ / . /+;+(+_+, u . / / . . . . . F :+:+V ) ",
"  c e . . . ^+<+[+R . . . . . . . #.@.}+w.. / . . . | h . . . B.|+1+1.D ",
"! . . . . 2+3+A w @.. . . . / / . . / 4+m . . . . . / . . . . . w ^ @.) ",
"  . . / 5+6+7+8+@.] 9+0+a+b+3 F . . d t S.. O.c+d+. . . . . . ] . a R ) ",
"  . e+f+g+h+i+j+/ 2+k+l+m+n+o+p+. . [.. +.q+r+s+t+u+/ z T . . . . / . ) ",
"W v+w+x+y+y+z+A+. B+C+D+E+F+G+H+. . {.. ] I+J+K+L+M+N+O+P+/ Q+R+S+. . ) ",
"T+U+V+W+X+Y+Z+`+c  @.@+@@@#@$@%@. . . . &@*@=@-@;@>@,@'@c . )@!@~@{@. ) ",
"| ]@^@/@(@(@_@:@4 <@[@+@}@|@1@2@. / M . 3@4@5@}@-@6@7@c { 8@9@0@a@b@q+) ",
"! c@d@e@f@g@h@i@e j@k@l@|@}@m@n@o@4 p@R q@r@s@|@-@t@u@/ } v@w@x@y@z@A@D ",
"! B@C@D@E@F@G@H@I@J@K@+@|@|@L@M@N@O@P@Q@R@S@l@T@}@U@V@. . W@X@Y@Z@`@ #.#",
"+#@###$#E@%#&#*#=#-#;#>#,#'#)#!#~#{#]#^#/#(#_#s@}@:#<#. . [#}#|#Y@|#1#2#",
"3#4#5#6#7#8#9#0#0.a#b#c#d#e#f#g#h#i#j#k#l#m#n#o#p#q#r#. . s#t#u#v#w#x#y#",
"#.z#A#B#|#C#D#E#F#G#H#I#J#K#L#M#N#O#P#Q#k#R#S#T#U#V#W#. . X#Y#x#v#Z#`# $",
".$+$@$6#|##$$$%$&$*$=$-$;$>$,$'$)$R@!$~${$]$^$/$($_$:$. / <$[$}$|$1$w#2$",
"1 3$4$}$w#5$6$7$8$9$0$a$b$c$d$e$f$g$h$i$j$k$l$m$n$o$p$q$r$s$t$}$1$u$v$w$",
"! 9+x$y$C#z$A$B$C$D$E$F$G$H$I$J$K$L$M$N$O$P$Q$R$S$T$U$[ V$W$X$x#u$Y$v#Z$",
"! f `$ %.%+%@%#%$%%%&%*%=%-%;%>%,%'%)%!%~%{%]%^%/%(%_%:%<%[%}%|%1%1%2%n ",
"Z.u 4 3%4%5%6%7%8%9%T#0%a%b%c%d%e%f%g%h%i%j%k%l%m%n%o%p%q%r%s%t%u%v%w%D ",
"! / . $ x%y%z%A%B%C%D%E%F%G%H%I%J%K%L%M%N%O%P%Q%R%S%T%U%V%W%X%Y%Z%`%K ) ",
"  . . . .  &.&+&@&#&$&%&&&*&=&-&;&>&,&'&)&!&~&{&]&^&/&(&_&:&<&[&}&C / |&",
"  . . . . . [ 1&2&3&4&5&6&7&8&`@9&|#0&a&b&c&d&e&f&g&h&i&j&k&l&m&n&o 1 * ",
"  . u o&] / . . [ p&q&r&1#s&t&u&v&w&x&y&z&|$A&B&C&D&E&F&G&H&H@/ @ . . D ",
"  . 4 E U @.. . {.I&J&K&L&M&N&O&P&Q&R&S&T&U&x#V&W&X&Y&Z&R ^ w . / ... g ",
"! . * `&] y / / /  *.*+*^#@*#*$*O&%*&***{$=*-*;*>*,*'*@.. ] g . / l . D ",
")*. . . !*~*/ / 4 {*N%]*^*/*(*_*:*t&<*[*}*}*|*1*2*3*4*  . 1 1 5*. @ . ) ",
"  . . / 6*7*@.^ 8*9*0*a*P#b*c*d*e*f*g*h*i*P#O#j*k*l*m*M . . n*o*A -.q ) ",
"  m . . p*q*r*s*t*u*v*O#P#w*x*y*z*A*B*C*P#P#D*i*E*F*G*H*. . I*J*K*L*R D "};
