/* XPM */
static char *_017[] = {
/* columns rows colors chars-per-pixel */
"64 64 2 1 ",
"  c #E08DFC",
". c #EABCFA",
/* pixels */
".    ....    ....    ....    ....    ....    ....    ....    ...",
".    ....    ....    ....    ....    ....    ....    ....    ...",
".    ....    ....    ....    ....    ....    ....    ....    ...",
".    ....    ....    ....    ....    ....    ....    ....    ...",
".    ....    ....    ....    ....    ....    ....    ....    ...",
".    ....    ....    ....    ....    ....    ....    ....    ...",
".    ....    ....    ....    ....    ....    ....    ....    ...",
".    ....    ....    ....    ....    ....    ....    ....    ...",
".    ....    ....    ....    ....    ....    ....    ....    ...",
".    ....    ....    ....    ....    ....    ....    ....    ...",
".    ....    ....    ....    ....    ....    ....    ....    ...",
".    ....    ....    ....    ....    ....    ....    ....    ...",
".    ....    ....    ....    ....    ....    ....    ....    ...",
".    ....    ....    ....    ....    ....    ....    ....    ...",
".    ....    ....    ....    ....    ....    ....    ....    ...",
".    ....    ....    ....    ....    ....    ....    ....    ...",
".    ....    ....    ....    ....    ....    ....    ....    ...",
".    ....    ....    ....    ....    ....    ....    ....    ...",
".    ....    ....    ....    ....    ....    ....    ....    ...",
".    ....    ....    ....    ....    ....    ....    ....    ...",
".    ....    ....    ....    ....    ....    ....    ....    ...",
".    ....    ....    ....    ....    ....    ....    ....    ...",
".    ....    ....    ....    ....    ....    ....    ....    ...",
".    ....    ....    ....    ....    ....    ....    ....    ...",
".    ....    ....    ....    ....    ....    ....    ....    ...",
".    ....    ....    ....    ....    ....    ....    ....    ...",
".    ....    ....    ....    ....    ....    ....    ....    ...",
".    ....    ....    ....    ....    ....    ....    ....    ...",
".    ....    ....    ....    ....    ....    ....    ....    ...",
".    ....    ....    ....    ....    ....    ....    ....    ...",
".    ....    ....    ....    ....    ....    ....    ....    ...",
".    ....    ....    ....    ....    ....    ....    ....    ...",
".    ....    ....    ....    ....    ....    ....    ....    ...",
".    ....    ....    ....    ....    ....    ....    ....    ...",
".    ....    ....    ....    ....    ....    ....    ....    ...",
".    ....    ....    ....    ....    ....    ....    ....    ...",
".    ....    ....    ....    ....    ....    ....    ....    ...",
".    ....    ....    ....    ....    ....    ....    ....    ...",
".    ....    ....    ....    ....    ....    ....    ....    ...",
".    ....    ....    ....    ....    ....    ....    ....    ...",
".    ....    ....    ....    ....    ....    ....    ....    ...",
".    ....    ....    ....    ....    ....    ....    ....    ...",
".    ....    ....    ....    ....    ....    ....    ....    ...",
".    ....    ....    ....    ....    ....    ....    ....    ...",
".    ....    ....    ....    ....    ....    ....    ....    ...",
".    ....    ....    ....    ....    ....    ....    ....    ...",
".    ....    ....    ....    ....    ....    ....    ....    ...",
".    ....    ....    ....    ....    ....    ....    ....    ...",
".    ....    ....    ....    ....    ....    ....    ....    ...",
".    ....    ....    ....    ....    ....    ....    ....    ...",
".    ....    ....    ....    ....    ....    ....    ....    ...",
".    ....    ....    ....    ....    ....    ....    ....    ...",
".    ....    ....    ....    ....    ....    ....    ....    ...",
".    ....    ....    ....    ....    ....    ....    ....    ...",
".    ....    ....    ....    ....    ....    ....    ....    ...",
".    ....    ....    ....    ....    ....    ....    ....    ...",
".    ....    ....    ....    ....    ....    ....    ....    ...",
".    ....    ....    ....    ....    ....    ....    ....    ...",
".    ....    ....    ....    ....    ....    ....    ....    ...",
".    ....    ....    ....    ....    ....    ....    ....    ...",
".    ....    ....    ....    ....    ....    ....    ....    ...",
".    ....    ....    ....    ....    ....    ....    ....    ...",
".    ....    ....    ....    ....    ....    ....    ....    ...",
".    ....    ....    ....    ....    ....    ....    ....    ..."
};
