/* XPM */
static char * cutie_xpm[] = {
"36 64 509 2",
"  	c #3B3034",
". 	c #3A3033",
"+ 	c #392F32",
"@ 	c #453A3D",
"# 	c #3E3237",
"$ 	c #3A3034",
"% 	c #605458",
"& 	c #8C8183",
"* 	c #B7AEAE",
"= 	c #A09696",
"- 	c #736769",
"; 	c #3F3437",
"> 	c #9E8F92",
", 	c #DDD1D0",
"' 	c #DFD6D4",
") 	c #E8DEDB",
"! 	c #D5C2C6",
"~ 	c #988B8D",
"{ 	c #9F9193",
"] 	c #E9DCDC",
"^ 	c #EDE4E0",
"/ 	c #EDE6E1",
"( 	c #EDE5E1",
"_ 	c #EBE0DD",
": 	c #D9CBCA",
"< 	c #8B7E80",
"[ 	c #706066",
"} 	c #E3CFD4",
"| 	c #ECE2DF",
"1 	c #ECE5E0",
"2 	c #EDE5E2",
"3 	c #EAE2DD",
"4 	c #EBE2DE",
"5 	c #EADFDD",
"6 	c #A49297",
"7 	c #393033",
"8 	c #64555A",
"9 	c #E1D6D5",
"0 	c #EEE6E2",
"a 	c #EFE8E3",
"b 	c #F1EAE5",
"c 	c #F3EEE8",
"d 	c #EFEAE4",
"e 	c #EDE7E1",
"f 	c #E9DEDB",
"g 	c #B6A8A9",
"h 	c #3A2F33",
"i 	c #3E3236",
"j 	c #CFBDC1",
"k 	c #EDE3E0",
"l 	c #EEE7E2",
"m 	c #F0E9E4",
"n 	c #ECE4E0",
"o 	c #E9E1DD",
"p 	c #E5D7D8",
"q 	c #786D6F",
"r 	c #B4A4A8",
"s 	c #EBE0DF",
"t 	c #EEE6E3",
"u 	c #F4EEE8",
"v 	c #F4EDE8",
"w 	c #F3EDE7",
"x 	c #F0EAE4",
"y 	c #EAE0DC",
"z 	c #E0CDD1",
"A 	c #342B2E",
"B 	c #79676D",
"C 	c #ECDCE0",
"D 	c #EEE5E2",
"E 	c #EEE6E1",
"F 	c #F0EBE4",
"G 	c #EDE5E0",
"H 	c #EDE6E0",
"I 	c #EAE3DD",
"J 	c #E8E0DC",
"K 	c #B9A9AB",
"L 	c #CFBEC1",
"M 	c #EADFDE",
"N 	c #EBE3E0",
"O 	c #F0EAE5",
"P 	c #F0EBE5",
"Q 	c #F2EAE6",
"R 	c #EEE8E2",
"S 	c #EADFDC",
"T 	c #E7D4D8",
"U 	c #6A5A5F",
"V 	c #998A8F",
"W 	c #EDDFE2",
"X 	c #EFE9E3",
"Y 	c #EBE1DD",
"Z 	c #E9E1DB",
"` 	c #EAE2DE",
" .	c #E9E0DD",
"..	c #D0C1C3",
"+.	c #EAD5DC",
"@.	c #E9E2DD",
"#.	c #EFE9E5",
"$.	c #EEE9E3",
"%.	c #EBE4DE",
"&.	c #E8DDDA",
"*.	c #EBD8DC",
"=.	c #97838B",
"-.	c #AA9CA1",
";.	c #EFE7E4",
">.	c #ECE5E2",
",.	c #ECE4DF",
"'.	c #E8E0DB",
").	c #EAE3DE",
"!.	c #EAE0DE",
"~.	c #E8D7D8",
"{.	c #E9E0DB",
"].	c #E7DFDB",
"^.	c #ECE1DE",
"/.	c #F2EDE7",
"(.	c #F1ECE6",
"_.	c #EDE4DF",
":.	c #E9DFDC",
"<.	c #E9D2D8",
"[.	c #726167",
"}.	c #9E8E92",
"|.	c #ECE4E1",
"1.	c #ECE5E1",
"2.	c #EAE2DF",
"3.	c #EBE3DE",
"4.	c #E9E2DE",
"5.	c #EBE2DF",
"6.	c #E5D5D4",
"7.	c #E6DCD9",
"8.	c #E7DEDA",
"9.	c #EAE1DE",
"0.	c #F1EDE6",
"a.	c #EEE7E1",
"b.	c #E6DED9",
"c.	c #E6CDD5",
"d.	c #3F3337",
"e.	c #736267",
"f.	c #EBE0DE",
"g.	c #EBE3DF",
"h.	c #E9E1DE",
"i.	c #EDE7E2",
"j.	c #E4D4D4",
"k.	c #E8DFDA",
"l.	c #F0E9E3",
"m.	c #E8DCDA",
"n.	c #E9CBD5",
"o.	c #514448",
"p.	c #3D3034",
"q.	c #E4D2D6",
"r.	c #E8DEDC",
"s.	c #E9E2DC",
"t.	c #E5D9D8",
"u.	c #E5D8D7",
"v.	c #E8DDDB",
"w.	c #E9DEDC",
"x.	c #EDE8E2",
"y.	c #EBE5DF",
"z.	c #D0B5BC",
"A.	c #382E32",
"B.	c #CFBCC0",
"C.	c #E8DFDC",
"D.	c #ECE5DF",
"E.	c #E6DDDA",
"F.	c #E6DBD9",
"G.	c #E7DDDB",
"H.	c #E9DFDB",
"I.	c #E6DEDA",
"J.	c #E7DFDA",
"K.	c #BFA9AD",
"L.	c #B9A3AA",
"M.	c #E7DEDC",
"N.	c #EAE1DC",
"O.	c #EBE2DD",
"P.	c #ECE2DE",
"Q.	c #E4DAD7",
"R.	c #E9DDDD",
"S.	c #E8DBDC",
"T.	c #E7DADA",
"U.	c #E7DCDB",
"V.	c #E7DDD9",
"W.	c #E6DCD8",
"X.	c #E8DEDA",
"Y.	c #AD9A9F",
"Z.	c #AB8A99",
"`.	c #E6C9D5",
" +	c #E8D5D9",
".+	c #E7DBDB",
"++	c #E8DCDB",
"@+	c #E9DDDA",
"#+	c #E9D4DA",
"$+	c #E6D1D6",
"%+	c #E6D6D7",
"&+	c #E3D6D6",
"*+	c #E3D5D4",
"=+	c #DFD1D0",
"-+	c #DED0CF",
";+	c #E0D2D1",
">+	c #E0D3D2",
",+	c #E5DAD8",
"'+	c #E5DBD8",
")+	c #E3D8D6",
"!+	c #817176",
"~+	c #806371",
"{+	c #C79AAE",
"]+	c #E4C1CE",
"^+	c #E7BDD0",
"/+	c #E8C0D2",
"(+	c #E8C2D2",
"_+	c #E5BCCF",
":+	c #ECC2D4",
"<+	c #EDC8D9",
"[+	c #EAC9D9",
"}+	c #E2C2D0",
"|+	c #E5D7D7",
"1+	c #E5DCD7",
"2+	c #E8E1DD",
"3+	c #E8E1DC",
"4+	c #E7DCD9",
"5+	c #E5D6D5",
"6+	c #E5D4D4",
"7+	c #DFCFCF",
"8+	c #574A4E",
"9+	c #79636C",
"0+	c #D4AEBF",
"a+	c #E5C1D0",
"b+	c #E4B9CB",
"c+	c #DCAEC3",
"d+	c #E9C1D4",
"e+	c #E5B9CD",
"f+	c #E7BFD2",
"g+	c #E7CCD7",
"h+	c #DEC7CE",
"i+	c #E5BED0",
"j+	c #E1CFD1",
"k+	c #C4B9B9",
"l+	c #484142",
"m+	c #3C3034",
"n+	c #A18893",
"o+	c #473B40",
"p+	c #A9979B",
"q+	c #E1CCD0",
"r+	c #E3C2CF",
"s+	c #E9C1D3",
"t+	c #E3BECD",
"u+	c #E2B9CC",
"v+	c #E3C7D2",
"w+	c #E5C0D0",
"x+	c #E1BCCB",
"y+	c #DFC8CD",
"z+	c #E7DFDC",
"A+	c #EFE7E3",
"B+	c #B7B2AE",
"C+	c #716167",
"D+	c #EDC8DA",
"E+	c #8C757F",
"F+	c #5E5156",
"G+	c #DBCECE",
"H+	c #E8DFDB",
"I+	c #EAC9D7",
"J+	c #E8CFD7",
"K+	c #E9D8DA",
"L+	c #E9C5D5",
"M+	c #E6D9DA",
"N+	c #EEE7E3",
"O+	c #ECE6E0",
"P+	c #DED9D4",
"Q+	c #645F5F",
"R+	c #9E8490",
"S+	c #C7A4B4",
"T+	c #C8ADB6",
"U+	c #E3D8D7",
"V+	c #E6DCDB",
"W+	c #EDCCD8",
"X+	c #E7D6D9",
"Y+	c #EAD2D8",
"Z+	c #EFD1DE",
"`+	c #E5DDD9",
" @	c #E7DED9",
".@	c #E5DCD9",
"+@	c #BDB9B6",
"@@	c #392F33",
"#@	c #927581",
"$@	c #EBC4D6",
"%@	c #EBC5D6",
"&@	c #E8CBD6",
"*@	c #EBC7D6",
"=@	c #E8D8D8",
"-@	c #E9CFD8",
";@	c #F0D1DD",
">@	c #E8DDDC",
",@	c #E7E0DB",
"'@	c #EDE6E2",
")@	c #EBE4DF",
"!@	c #F0E8E4",
"~@	c #DAD4D1",
"{@	c #413B3C",
"]@	c #AA989D",
"^@	c #E9DBDC",
"/@	c #EADDDC",
"(@	c #E6D2D6",
"_@	c #E1D1D3",
":@	c #EAE0DD",
"<@	c #E5D1D5",
"[@	c #EED0DB",
"}@	c #E9D6DA",
"|@	c #9E9B98",
"1@	c #382D31",
"2@	c #DFCCCF",
"3@	c #E9E0DC",
"4@	c #EAE1DD",
"5@	c #EACED8",
"6@	c #E9CDD7",
"7@	c #EFE8E4",
"8@	c #B3ADAA",
"9@	c #483E40",
"0@	c #E4DAD6",
"a@	c #ECE3E0",
"b@	c #E7CAD5",
"c@	c #E6C1D2",
"d@	c #F0E8E5",
"e@	c #D3CDC9",
"f@	c #706064",
"g@	c #E4D5D6",
"h@	c #E8E0DD",
"i@	c #E7DDDA",
"j@	c #E2D3D4",
"k@	c #E1D0D2",
"l@	c #E2D6D6",
"m@	c #D3CDCA",
"n@	c #382F32",
"o@	c #4A3E40",
"p@	c #EBE4E0",
"q@	c #EFE9E4",
"r@	c #DCD7D2",
"s@	c #382E31",
"t@	c #392E31",
"u@	c #BCA9AE",
"v@	c #EBE3DD",
"w@	c #EAE4DF",
"x@	c #E6DEDB",
"y@	c #EEE8E3",
"z@	c #D7D2CF",
"A@	c #AC929B",
"B@	c #EAE2DC",
"C@	c #ECE4DE",
"D@	c #E9E4DF",
"E@	c #E9E3DD",
"F@	c #625056",
"G@	c #E3D1D3",
"H@	c #E8E2DC",
"I@	c #E5DBD7",
"J@	c #E7DBD8",
"K@	c #ECE6E2",
"L@	c #CCC3C0",
"M@	c #B4ABA9",
"N@	c #DCD4CF",
"O@	c #A39D9B",
"P@	c #3D3135",
"Q@	c #E1CDD0",
"R@	c #E0D7D3",
"S@	c #8D8283",
"T@	c #797373",
"U@	c #726B6C",
"V@	c #C9C1C0",
"W@	c #EFE8E2",
"X@	c #A9A2A0",
"Y@	c #6A6868",
"Z@	c #888181",
"`@	c #E4DCD7",
" #	c #E3DED8",
".#	c #514949",
"+#	c #A89296",
"@#	c #E6DAD9",
"##	c #D8CDCC",
"$#	c #524D4D",
"%#	c #211B1D",
"&#	c #847D7C",
"*#	c #EBE6E1",
"=#	c #847F7C",
"-#	c #696262",
";#	c #CFC5C3",
">#	c #E6DAD8",
",#	c #C1B9B7",
"'#	c #362C2F",
")#	c #342B2D",
"!#	c #C9B2B8",
"~#	c #E7DBDA",
"{#	c #E5D3D4",
"]#	c #DFC7CB",
"^#	c #D0C0C2",
"/#	c #BFB0B1",
"(#	c #DECCCE",
"_#	c #E0D2D2",
":#	c #EAE5E0",
"<#	c #EAE3E0",
"[#	c #E2D7D5",
"}#	c #DDCECE",
"|#	c #DECACD",
"1#	c #D7C3C6",
"2#	c #685F5F",
"3#	c #725E64",
"4#	c #D2BDC1",
"5#	c #E7D9D9",
"6#	c #E6D3D5",
"7#	c #E2C8CF",
"8#	c #E0C3CA",
"9#	c #E1C9CE",
"0#	c #E1D0D1",
"a#	c #E0D0D1",
"b#	c #DBC8CB",
"c#	c #E6DCDA",
"d#	c #E4D8D6",
"e#	c #DECECF",
"f#	c #DBC7CA",
"g#	c #957F85",
"h#	c #413438",
"i#	c #B59CA5",
"j#	c #E2CFD1",
"k#	c #DFC9CE",
"l#	c #E2CED1",
"m#	c #E0CDCF",
"n#	c #E2D5D4",
"o#	c #E7DDDC",
"p#	c #E0D5D4",
"q#	c #E5DBD9",
"r#	c #DACCCD",
"s#	c #8D7A7E",
"t#	c #645A5C",
"u#	c #D0B8BE",
"v#	c #DDC9CD",
"w#	c #E0D3D3",
"x#	c #E3D5D5",
"y#	c #DDCECF",
"z#	c #BAA2AA",
"A#	c #44383C",
"B#	c #7F6F72",
"C#	c #D3C7C6",
"D#	c #E1D2D2",
"E#	c #DCCFCE",
"F#	c #E1D7D4",
"G#	c #E2D4D2",
"H#	c #E5D9D7",
"I#	c #E1D3D2",
"J#	c #E2D4D3",
"K#	c #E2D4D4",
"L#	c #E3D4D5",
"M#	c #CFBFC1",
"N#	c #635257",
"O#	c #8F7F84",
"P#	c #D6C6C8",
"Q#	c #E7DCDA",
"R#	c #E3D9D6",
"S#	c #E4DCD6",
"T#	c #E4DBD6",
"U#	c #E3D8D5",
"V#	c #E4DBD7",
"W#	c #E5DDD7",
"X#	c #E6DDD8",
"Y#	c #E3D2D4",
"Z#	c #D7CCCA",
"`#	c #7E7777",
" $	c #79646C",
".$	c #E3D4D6",
"+$	c #EAE1DF",
"@$	c #ECE2E0",
"#$	c #E4D8D8",
"$$	c #E1D8D4",
"%$	c #E3DAD5",
"&$	c #E6DDD9",
"*$	c #E6E0DA",
"=$	c #E1D4D3",
"-$	c #DFD7D3",
";$	c #574F4F",
">$	c #5A494F",
",$	c #D4B9C2",
"'$	c #E9DFDD",
")$	c #EBDEDE",
"!$	c #E8DCDC",
"~$	c #DECFD0",
"{$	c #E6DFDA",
"]$	c #E8E0DA",
"^$	c #E7DFD9",
"/$	c #E8E1DB",
"($	c #E3D6D5",
"_$	c #E5D7D6",
":$	c #D8CCCB",
"<$	c #463B3E",
"[$	c #907580",
"}$	c #E6D7D9",
"|$	c #E2D1D2",
"1$	c #EBE1DE",
"2$	c #9E8F91",
"3$	c #392F31",
"4$	c #A9949C",
"5$	c #EAE3DF",
"6$	c #EDE4E1",
"7$	c #ECE3E1",
"8$	c #E1D1D1",
"9$	c #EBDFDE",
"0$	c #EBE2E0",
"a$	c #6F6667",
"b$	c #86797D",
"c$	c #EEE7E4",
"d$	c #F1EAE6",
"e$	c #EDE3E1",
"f$	c #E5D5D6",
"g$	c #ECE3DE",
"h$	c #E9DCDB",
"i$	c #E9D9D9",
"j$	c #908585",
"                                                                        ",
"                                                                        ",
"                                                                        ",
"                                                                        ",
"                                                                        ",
"                                                                        ",
"                                                                        ",
"                                                                        ",
"                                                                        ",
"                                                                        ",
"                                                                        ",
"                                                                        ",
"                                                                        ",
"                                                                        ",
"                                                                        ",
"                                                                        ",
"                                                                        ",
"                                                                        ",
"                                                                        ",
"                                                                        ",
"                                                                        ",
"                                                                        ",
"                                                                        ",
"                                                                        ",
"                    . + @ #         $ % & * = - ;                       ",
"                  > , ' ) ! ~       { ] ^ / ( _ : <                     ",
"              [ } | 1 2 3 4 5 6 7 8 9 0 a b c d e f g h                 ",
"            i j k l 2 m / n o p q r s t a u v w x y z A                 ",
"            B C D t E F G H I J K L M N ( O P Q R S T U                 ",
"            V W ( ( a X Y Z `  ...+.5 @.n #.$.P %.&.*.=.                ",
"            -.2 2 t ;.>.,.3 '.).!.~.{.].^./.d (._.:.<.[.                ",
"            }.|.1.2 2.|.2 |.3.4.5.6.7.8.9.0.a.x Z b.c.d.                ",
"            e.f.3 !.2 g.N N h.g.i.j.) k.{.l.X d g.m.n.o.                ",
"            p.q.r.o l s.2 N ` o |.t.u.v.w./ x.y.3.f z.A.                ",
"              B.C.%.D.Z 1 ,.8.E.N r.F.G.H.b.I.J.s.I.K.                  ",
"              L.M.,.N.O.{.P.7.Q.h.R.S.T.U.V.W.X.H.W.Y.                  ",
"              Z.`. +.+++@+] #+$+%+&+*+=+-+;+>+,+'+)+!+                  ",
"            ~+{+]+^+/+(+_+:+<+[+}+|+1+J.2+3+4+5+6+7+8+                  ",
"            9+0+a+b+c+d+e+f+g+h+i+j+'.s.3.a.H s.o k+l+                  ",
"      m+n+o+$ p+q+r+s+t+u+v+w+x+y+J.z+h.3+D.A+I E y.B+                  ",
"      C+D+E+F+G+H+I+J+K+L+M+F.F.J 2.|.|.2./ / a.N+O+P+Q+                ",
"        R+S+T+U+V+W+X+Y+Z+G.`+ @.@N N |.|.t ;.N+a.l #.+@@@              ",
"          #@$@%@&@*@=@-@;@>@,@].h.N n '@)@A+;.!@1 g.2 ~@{@              ",
"          ]@^@/@(@_@:@<@[@}@@.h.2.N )@g.( t ;.0 A+;.A+1 |@              ",
"        1@2@3@g.|.,.4@,+5@6@H+J N N |.n |.2 2 0 A+/ 7@N+8@              ",
"        9@0@1 ( 2 ( a@.+b@c@|+h.|.N N g.|.2 t d@;.a d@;.e@@@            ",
"        f@g@O.).2 h@h@i@j@k@l@h@N N h.2.N N 2 t d@d@7@N+m@n@            ",
"        o@j@{.3.n g.p@n ` h@h@z+3 N N )@1 / q@X O 7@;.t r@s@            ",
"        t@u@8.G v@N.( D.w@4.J x@2.N 2.2 ( a.( ( m y@t y@z@s@            ",
"          A@t.g.D.B@4.C@Y D@E@x@h.|.n A+2 ( |.H O x.0 N++@$             ",
"          F@G@H.O.H@I@J@5 :.o ` 2.1 a.1 p@K@|.g.L@M@N@i.O@              ",
"          P@Q@B@).I R@S@T@U@V@h@)@R W@l 2 2 @.X@Y@Z@`@ #.#              ",
"          h +#@#|.!.F.##$#%#&#b.D.*#W@H n 2.x@=#-#;#>#,#'#              ",
"            )#!#!.~#{#]#^#/#(#_#>@:#<#4.) <#G.[#}#|#1#2#                ",
"              3#4#5#6#7#8#7#9#0#F.!.a#b#c#M.d#0#e#f#g#h                 ",
"                h#i#j#_@k#l#m#n#v.r._#o#p#:.q#t.r#s#s@                  ",
"                  t#u#v#w#5 w.G.h.3 )@n 2.4.x#y#z#A#                    ",
"                B#C#[#x#D#=+=+E#F#G#H#I#J#K#L#u.V.M#N#                  ",
"              O#P#t.Q#F.,+[#U+R#S#1+T#U#V#W#X#Y#) J.Z#`#                ",
"             $.$~#+$@$Q##$>+)+$$1+X#%$1+&$*$b.&$=$_ s.-$;$              ",
"          >$,$M. .'$)$!$!$~$V#1+ @s.{${$J.]$^$/$($_$O.Z :$<$            ",
"          [$}$;.N +$5.Q#!.k@8.b.3.D.` o 3.I s.s.r.|$1$` 2.2$3$          ",
"          4$5$'@3._.6$r.7$8$H+J W@a./ 2 ;.A+H E o G@9$0$|.3@a$          ",
"          b$c$#.t d$a@e$|.f$:@4@^ g$P 7@d@d@d@W@g$h$i$;.d@G j$          "};
