/* XPM */
static char *_008[] = {
/* columns rows colors chars-per-pixel */
"64 64 2 1 ",
"  c #F6FA85",
". c #FAFCBF",
/* pixels */
"...    ..................................................    ...",
"...    ..................................................    ...",
"...    ..................................................    ...",
"...    ..................................................    ...",
"...    ..................................................    ...",
"...    ...............    ............    ...............    ...",
"...    ..............       ........       ..............    ...",
"...    .............         ......         .............    ...",
"...    ............           ....           ............    ...",
"...    ...........            ....            ...........    ...",
"...    ...........             ..             ...........    ...",
"...    ...........             ..             ...........    ...",
"...    ...........                            ...........    ...",
"...    ...........                            ...........    ...",
"...    ...........                            ...........    ...",
"...    ...........                            ...........    ...",
"...    ...........                            ...........    ...",
"...    ...........                            ...........    ...",
"...    ............                          ............    ...",
"...    .............                        .............    ...",
"...    ..............                      ..............    ...",
"...    ...............                    ...............    ...",
"...    ................                  ................    ...",
"...    .................                .................    ...",
"...    ..................              ..................    ...",
"...    ...................            ...................    ...",
"...    ....................          ....................    ...",
"...    .....................        .....................    ...",
"...    ......................      ......................    ...",
"...    .......................    .......................    ...",
"...    ........................  ........................    ...",
"...    ..................................................    ...",
"...    ..................................................    ...",
"...    ..................................................    ...",
"...    ..................................................    ...",
"...    ..................................................    ...",
"...    ..................................................    ...",
"...    ...............    ............    ...............    ...",
"...    ..............       ........       ..............    ...",
"...    .............         ......         .............    ...",
"...    ............           ....           ............    ...",
"...    ...........            ....            ...........    ...",
"...    ...........             ..             ...........    ...",
"...    ...........             ..             ...........    ...",
"...    ...........                            ...........    ...",
"...    ...........                            ...........    ...",
"...    ...........                            ...........    ...",
"...    ...........                            ...........    ...",
"...    ...........                            ...........    ...",
"...    ...........                            ...........    ...",
"...    ............                          ............    ...",
"...    .............                        .............    ...",
"...    ..............                      ..............    ...",
"...    ...............                    ...............    ...",
"...    ................                  ................    ...",
"...    .................                .................    ...",
"...    ..................              ..................    ...",
"...    ...................            ...................    ...",
"...    ....................          ....................    ...",
"...    .....................        .....................    ...",
"...    ......................      ......................    ...",
"...    .......................    .......................    ...",
"...    ........................  ........................    ...",
"...    ..................................................    ..."
};
