/* XPM */
static char *_002[] = {
/* columns rows colors chars-per-pixel */
"64 64 2 1 ",
"  c #FA85DF",
". c #FF96E7",
/* pixels */
".    ............    ............    ............    ...........",
".    ............    ............    ............    ...........",
".    ............    ............    ............    ...........",
".    ............    ............    ............    ...........",
".    ............    ............    ............    ...........",
".    ............    ............    ............    ...........",
".    ............    ............    ............    ...........",
".    ............    ............    ............    ...........",
".    ............    ............    ............    ...........",
".    ............    ............    ............    ...........",
".    ............    ............    ............    ...........",
".    ............    ............    ............    ...........",
".    ............    ............    ............    ...........",
".    ............    ............    ............    ...........",
".    ............    ............    ............    ...........",
".    ............    ............    ............    ...........",
".    ............    ............    ............    ...........",
".    ............    ............    ............    ...........",
".    ............    ............    ............    ...........",
".    ............    ............    ............    ...........",
".    ............    ............    ............    ...........",
".    ............    ............    ............    ...........",
".    ............    ............    ............    ...........",
".    ............    ............    ............    ...........",
".    ............    ............    ............    ...........",
".    ............    ............    ............    ...........",
".    ............    ............    ............    ...........",
".    ............    ............    ............    ...........",
".    ............    ............    ............    ...........",
".    ............    ............    ............    ...........",
".    ............    ............    ............    ...........",
".    ............    ............    ............    ...........",
".    ............    ............    ............    ...........",
".    ............    ............    ............    ...........",
".    ............    ............    ............    ...........",
".    ............    ............    ............    ...........",
".    ............    ............    ............    ...........",
".    ............    ............    ............    ...........",
".    ............    ............    ............    ...........",
".    ............    ............    ............    ...........",
".    ............    ............    ............    ...........",
".    ............    ............    ............    ...........",
".    ............    ............    ............    ...........",
".    ............    ............    ............    ...........",
".    ............    ............    ............    ...........",
".    ............    ............    ............    ...........",
".    ............    ............    ............    ...........",
".    ............    ............    ............    ...........",
".    ............    ............    ............    ...........",
".    ............    ............    ............    ...........",
".    ............    ............    ............    ...........",
".    ............    ............    ............    ...........",
".    ............    ............    ............    ...........",
".    ............    ............    ............    ...........",
".    ............    ............    ............    ...........",
".    ............    ............    ............    ...........",
".    ............    ............    ............    ...........",
".    ............    ............    ............    ...........",
".    ............    ............    ............    ...........",
".    ............    ............    ............    ...........",
".    ............    ............    ............    ...........",
".    ............    ............    ............    ...........",
".    ............    ............    ............    ...........",
".    ............    ............    ............    ..........."
};
